<mxfile host="app.diagrams.net" modified="2024-05-30T01:06:31.251Z" agent="Mozilla/5.0 (Windows NT 10.0; Win64; x64) AppleWebKit/537.36 (KHTML, like Gecko) Chrome/124.0.0.0 Safari/537.36" version="24.4.10" etag="HzMi1nnZM-gcRMNJ1Yzc" type="github">
  <diagram name="Page-1" id="lcJJtmFGBCdq6PyZz7G3">
    <mxGraphModel>
      <root>
        <mxCell id="0" />
        <mxCell id="1" parent="0" />
      </root>
    </mxGraphModel>
  </diagram>
</mxfile>
